<svg width="205" height="363" viewBox="0 0 205 363" fill="none" xmlns="http://www.w3.org/2000/svg">
<path d="M1.00004 107.409L1.00005 82.3398C63.3351 79.9576 50.9983 57.3398 95.9983 51.3398C156.998 35.3398 183.225 22.0003 174.224 1.00004L204.725 1.00006C204.725 32 197.555 51.3398 193.725 59.0003C172.66 101.129 124.022 103.517 95.9983 107.409L106.908 280.999C106.908 297.999 104.908 275.999 95.9983 331.339C94.604 339.999 95.9983 355.339 95.9983 362.339L75.9988 362.339C75.9988 358.673 76.9089 341.499 72.9089 328.999C68.9089 319.499 69.9089 320.499 62.9089 308.499C59.9089 304.499 59.9089 302.499 59.9089 302.499C58.4089 295.499 61.8313 107.409 61.8313 107.409L1.00004 107.409Z" fill="url(#paint0_linear)" stroke="#483FEB" stroke-width="0.5"/>
<defs>
<linearGradient id="paint0_linear" x1="227.996" y1="-34.66" x2="-54.0042" y2="195.34" gradientUnits="userSpaceOnUse">
<stop offset="0.744792" stop-color="#483FEB"/>
<stop offset="1" stop-color="#483FEB" stop-opacity="0.66"/>
</linearGradient>
</defs>
</svg>
